<?xml version="1.0" encoding="UTF-8" standalone="no"?>
<svg
   viewBox="0 0 480.0098 480.00772"
   version="1.1"
   id="svg4"
   sodipodi:docname="cookie-bite-solid.svg"
   width="480.0098"
   height="480.00772"
   inkscape:version="1.2 (dc2aedaf03, 2022-05-15)"
   xmlns:inkscape="http://www.inkscape.org/namespaces/inkscape"
   xmlns:sodipodi="http://sodipodi.sourceforge.net/DTD/sodipodi-0.dtd"
   xmlns="http://www.w3.org/2000/svg"
   xmlns:svg="http://www.w3.org/2000/svg">
  <defs
     id="defs8" />
  <sodipodi:namedview
     id="namedview6"
     pagecolor="#505050"
     bordercolor="#ffffff"
     borderopacity="1"
     inkscape:showpageshadow="0"
     inkscape:pageopacity="0"
     inkscape:pagecheckerboard="1"
     inkscape:deskcolor="#505050"
     showgrid="false"
     inkscape:zoom="1.5898438"
     inkscape:cx="240.27518"
     inkscape:cy="341.2285"
     inkscape:window-width="1920"
     inkscape:window-height="1001"
     inkscape:window-x="-9"
     inkscape:window-y="-9"
     inkscape:window-maximized="1"
     inkscape:current-layer="svg4" />
  <!--! Font Awesome Pro 6.1.1 by @fontawesome - https://fontawesome.com License - https://fontawesome.com/license (Commercial License) Copyright 2022 Fonticons, Inc. -->
  <path
     d="m 478.59427,239.9108 c -65.63,-0.8203 -118.6,-54.14 -118.6,-119.9 -65.74,0 -119.1,-52.969995 -119.8,-118.5999952 -25.66,-3.867 -51.8,0.2346 -74.77,12.0700002 l -64.73,32.94 c -23.350002,11.95 -42.340002,30.94 -54.290002,54.289995 l -32.81,64.5 c -11.9500002,23.44 -16.1700002,49.92 -12.0700002,75.94 l 11.3700002,71.48 c 4.102,25.9 16.29,49.8 34.81,68.32 l 51.36,51.39 c 18.530002,18.57 42.230002,30.67 68.130002,34.77 l 71.84,11.37 c 25.9,4.101 52.27,-0.1172 75.59,-11.95 l 64.81,-33.05 c 23.32,-11.84 42.31,-30.82 54.14,-54.14 l 32.93,-64.57 c 11.79,-23.06 15.99,-49.36 12.09,-74.86 z m -318.6,111.2 c -17.62,0 -32,-14.37 -32,-31.1 0,-16.73 14.38,-31.1 32,-31.1 17.62,0 32,14.37 32,31.1 0,16.73 -14.4,31.1 -32,31.1 z m 32,-159.1 c -17.62,0 -32,-14.37 -32,-31.1 0,-16.73 14.38,-31.1 32,-31.1 17.62,0 32,14.37 32,31.1 0,16.73 -14.4,31.1 -32,31.1 z m 160,127.1 c -17.62,0 -32,-14.37 -32,-31.1 0,-16.73 14.38,-31.1 32,-31.1 17.62,0 32,14.37 32,31.1 0,16.73 -14.4,31.1 -32,31.1 z"
     id="path2"
     style="fill:#473321;fill-opacity:1" />
</svg>
